<svg xmlns="http://www.w3.org/2000/svg" width="1000" height="680" viewBox="0 0 1000 680">
<rect width="100%" height="100%" fill="white"/>
<style>text{font-family:Arial,sans-serif;fill:#111827}.grid{stroke:#e5e7eb}.axis{stroke:#374151;stroke-width:1.5}</style>
<text x="500" y="28" text-anchor="middle" font-size="20">Phase C five-budget quality-latency Pareto curve</text>
<line class="grid" x1="90.00" y1="55" x2="90.00" y2="580"/>
<text x="90.00" y="604" text-anchor="middle" font-size="12">51.9</text>
<line class="grid" x1="90" y1="580.00" x2="945" y2="580.00"/>
<text x="81" y="584.00" text-anchor="end" font-size="12">23.1</text>
<line class="grid" x1="261.00" y1="55" x2="261.00" y2="580"/>
<text x="261.00" y="604" text-anchor="middle" font-size="12">55.5</text>
<line class="grid" x1="90" y1="475.00" x2="945" y2="475.00"/>
<text x="81" y="479.00" text-anchor="end" font-size="12">249.1</text>
<line class="grid" x1="432.00" y1="55" x2="432.00" y2="580"/>
<text x="432.00" y="604" text-anchor="middle" font-size="12">59</text>
<line class="grid" x1="90" y1="370.00" x2="945" y2="370.00"/>
<text x="81" y="374.00" text-anchor="end" font-size="12">475.2</text>
<line class="grid" x1="603.00" y1="55" x2="603.00" y2="580"/>
<text x="603.00" y="604" text-anchor="middle" font-size="12">62.6</text>
<line class="grid" x1="90" y1="265.00" x2="945" y2="265.00"/>
<text x="81" y="269.00" text-anchor="end" font-size="12">701.2</text>
<line class="grid" x1="774.00" y1="55" x2="774.00" y2="580"/>
<text x="774.00" y="604" text-anchor="middle" font-size="12">66.2</text>
<line class="grid" x1="90" y1="160.00" x2="945" y2="160.00"/>
<text x="81" y="164.00" text-anchor="end" font-size="12">927.3</text>
<line class="grid" x1="945.00" y1="55" x2="945.00" y2="580"/>
<text x="945.00" y="604" text-anchor="middle" font-size="12">69.7</text>
<line class="grid" x1="90" y1="55.00" x2="945" y2="55.00"/>
<text x="81" y="59.00" text-anchor="end" font-size="12">1153</text>
<line class="axis" x1="90" y1="580" x2="945" y2="580"/>
<line class="axis" x1="90" y1="55" x2="90" y2="580"/>
<text x="517.5" y="642" text-anchor="middle" font-size="15">End-to-end decode median (ms/output token; lower is better)</text>
<text transform="translate(23 317.5) rotate(-90)" text-anchor="middle" font-size="15">WikiText-2 perplexity (lower is better)</text>
<polyline points="148.97,91.21 312.95,356.59 493.54,488.38 677.85,533.73 886.03,543.79" fill="none" stroke="#2563eb" stroke-width="2.5"/>
<circle cx="148.97" cy="91.21" r="6" fill="#2563eb"><title>adaptive-budget-000</title></circle>
<text x="156.97" y="83.21" font-size="12" fill="#1d4ed8">0%</text>
<circle cx="312.95" cy="356.59" r="6" fill="#2563eb"><title>adaptive-budget-025</title></circle>
<text x="320.95" y="348.59" font-size="12" fill="#1d4ed8">25%</text>
<circle cx="493.54" cy="488.38" r="6" fill="#2563eb"><title>adaptive-budget-050</title></circle>
<text x="501.54" y="480.38" font-size="12" fill="#1d4ed8">50%</text>
<circle cx="677.85" cy="533.73" r="6" fill="#2563eb"><title>adaptive-budget-075</title></circle>
<text x="685.85" y="525.73" font-size="12" fill="#1d4ed8">75%</text>
<circle cx="886.03" cy="543.79" r="6" fill="#2563eb"><title>adaptive-budget-100</title></circle>
<text x="894.03" y="535.79" font-size="12" fill="#1d4ed8">100%</text>
<rect x="143.97" y="86.21" width="10" height="10" fill="#dc2626"><title>fixed-i</title></rect>
<text x="156.97" y="107.21" font-size="12">I</text>
<rect x="505.60" y="502.13" width="10" height="10" fill="#dc2626"><title>fixed-h32</title></rect>
<text x="518.60" y="523.13" font-size="12">H32</text>
<rect x="607.18" y="528.15" width="10" height="10" fill="#dc2626"><title>fixed-h128</title></rect>
<text x="620.18" y="549.15" font-size="12">H128</text>
<rect x="881.03" y="538.79" width="10" height="10" fill="#dc2626"><title>fixed-hfull</title></rect>
<text x="894.03" y="559.79" font-size="12">Hfull</text>
</svg>
